<?xml version="1.0" standalone="no"?><!DOCTYPE svg PUBLIC "-//W3C//DTD SVG 1.1//EN" "http://www.w3.org/Graphics/SVG/1.1/DTD/svg11.dtd"><svg t="1573548517715" class="icon" viewBox="0 0 1024 1024" version="1.1" xmlns="http://www.w3.org/2000/svg" p-id="1971" xmlns:xlink="http://www.w3.org/1999/xlink" width="200" height="200"><defs><style type="text/css"></style></defs><path d="M729.6 240H294.4C272 240 256 256 256 278.4v435.2c0 22.4 16 38.4 38.4 38.4h435.2c22.4 0 38.4-16 38.4-38.4V278.4c0-22.4-16-38.4-38.4-38.4zM364.8 691.2c0 9.6-9.6 19.2-19.2 19.2h-32c-9.6 0-19.2-9.6-19.2-19.2v-28.8c0-9.6 9.6-19.2 19.2-19.2h32c9.6 0 19.2 9.6 19.2 19.2v28.8z m0-118.4c0 9.6-9.6 19.2-19.2 19.2h-32c-9.6 0-19.2-9.6-19.2-19.2V544c0-9.6 9.6-19.2 19.2-19.2h32c9.6 0 19.2 9.6 19.2 19.2v28.8z m0-121.6c0 9.6-9.6 19.2-19.2 19.2h-32c-9.6 0-19.2-9.6-19.2-19.2v-28.8c0-9.6 9.6-19.2 19.2-19.2h32c9.6 0 19.2 9.6 19.2 19.2v28.8z m0-128c0 9.6-9.6 19.2-19.2 19.2h-32c-9.6 0-19.2-9.6-19.2-19.2v-28.8c0-9.6 9.6-19.2 19.2-19.2h32c9.6 0 19.2 9.6 19.2 19.2v28.8z m265.6 387.2h-224v-192h224v192z m0-236.8h-224V275.2h224v198.4z m102.4 217.6c0 9.6-9.6 19.2-19.2 19.2h-32c-9.6 0-19.2-9.6-19.2-19.2v-28.8c0-9.6 9.6-19.2 19.2-19.2h32c9.6 0 19.2 9.6 19.2 19.2v28.8z m0-118.4c0 9.6-9.6 19.2-19.2 19.2h-32c-9.6 0-19.2-9.6-19.2-19.2V544c0-9.6 9.6-19.2 19.2-19.2h32c9.6 0 19.2 9.6 19.2 19.2v28.8z m0-121.6c0 9.6-9.6 19.2-19.2 19.2h-32c-9.6 0-19.2-9.6-19.2-19.2v-28.8c0-9.6 9.6-19.2 19.2-19.2h32c9.6 0 19.2 9.6 19.2 19.2v28.8z m0-128c0 9.6-9.6 19.2-19.2 19.2h-32c-9.6 0-19.2-9.6-19.2-19.2v-28.8c0-9.6 9.6-19.2 19.2-19.2h32c9.6 0 19.2 9.6 19.2 19.2v28.8z" p-id="1972"></path></svg>