<?xml version="1.0" standalone="no"?><!DOCTYPE svg PUBLIC "-//W3C//DTD SVG 1.1//EN" "http://www.w3.org/Graphics/SVG/1.1/DTD/svg11.dtd"><svg t="1565767081508" class="icon" viewBox="0 0 1024 1024" version="1.1" xmlns="http://www.w3.org/2000/svg" p-id="2082" xmlns:xlink="http://www.w3.org/1999/xlink" width="200" height="200"><defs><style type="text/css"></style></defs><path d="M259.2 288l160 128L256 457.6zM512 512c-19.2 0-32-12.8-32-32v-96c0-16 12.8-32 32-32 16 0 32 12.8 32 32v96c0 19.2-12.8 32-32 32z" p-id="2083"></path><path d="M489.6 467.2c9.6-16 28.8-19.2 44.8-9.6l86.4 54.4c16 9.6 19.2 28.8 9.6 44.8-9.6 16-28.8 19.2-44.8 9.6L499.2 512c-16-9.6-19.2-32-9.6-44.8z" p-id="2084"></path><path d="M512 224c-134.4 0-243.2 102.4-256 233.6l67.2-16v-3.2C342.4 352 419.2 288 512 288c105.6 0 192 86.4 192 192s-86.4 192-192 192c-73.6 0-137.6-41.6-169.6-102.4l-64 12.8C316.8 672 406.4 736 512 736c140.8 0 256-115.2 256-256s-115.2-256-256-256z" p-id="2085"></path></svg>