<?xml version="1.0" standalone="no"?><!DOCTYPE svg PUBLIC "-//W3C//DTD SVG 1.1//EN" "http://www.w3.org/Graphics/SVG/1.1/DTD/svg11.dtd"><svg t="1565767957030" class="icon" viewBox="0 0 1024 1024" version="1.1" xmlns="http://www.w3.org/2000/svg" p-id="2677" xmlns:xlink="http://www.w3.org/1999/xlink" width="200" height="200"><defs><style type="text/css"></style></defs><path d="M288 416h64v32H288v-32z m64 0h32v160h-32v-160z m-64 128h64v32H288v-32z m0-64h64v32H288v-32z m128-32h32v128h-32v-128z m32 32h64v32h-64v-32z m32 32h32v64h-32v-64z m-32 32h32v32h-32v-32z m-32-128h96v32h-96v-32z m128 32h32v128h-32v-128z m0-32h96v32h-96v-32z m64 32h32v128h-32v-128z m-32 96h32v32h-32v-32z m95.456-128H736v64h-64.544v-64z" p-id="2678"></path><path d="M291.2 304a602.528 602.528 0 0 1 228.736-64 417.504 417.504 0 0 1 208 64l-41.6 42.656A281.792 281.792 0 0 0 520 304a451.488 451.488 0 0 0-208 64 91.296 91.296 0 0 1-24-32 45.44 45.44 0 0 1 3.2-32z" p-id="2679"></path><path d="M608 384l160-128v128h-160z" p-id="2680"></path><path d="M748.8 688a602.528 602.528 0 0 1-228.736 64 417.472 417.472 0 0 1-208-64l41.6-42.656a281.792 281.792 0 0 0 166.4 42.656 451.552 451.552 0 0 0 208-64 36.96 36.96 0 0 1 24.032 32 63.232 63.232 0 0 1-3.296 32z" p-id="2681"></path><path d="M448 608l-159.744 128.32L288 608h160z" p-id="2682"></path></svg>