<?xml version="1.0" standalone="no"?><!DOCTYPE svg PUBLIC "-//W3C//DTD SVG 1.1//EN" "http://www.w3.org/Graphics/SVG/1.1/DTD/svg11.dtd"><svg t="1565767488546" class="icon" viewBox="0 0 1024 1024" version="1.1" xmlns="http://www.w3.org/2000/svg" p-id="2200" xmlns:xlink="http://www.w3.org/1999/xlink" width="200" height="200"><defs><style type="text/css"></style></defs><path d="M256 512h64v256H256v-256z m64 192h384v64H320v-64z m384-192h64v256h-64v-256zM256 448h512v64H256v-64z" p-id="2201"></path><path d="M362.496 474.496h64v107.008h-64v-107.008z" p-id="2202"></path><path d="M485.504 474.496h64V624h-64v-149.504z" p-id="2203"></path><path d="M592 453.504h64v128h-64v-128z" p-id="2204"></path><path d="M256 256h64v128H256z" p-id="2205"></path><path d="M704 256h64v128h-64z" p-id="2206"></path><path d="M298.496 282.496h427.008v64H298.496v-64z" p-id="2207"></path></svg>